<?xml version="1.0" encoding="UTF-8" standalone="no"?>
<svg xmlns:rdf="http://www.w3.org/1999/02/22-rdf-syntax-ns#" xmlns="http://www.w3.org/2000/svg" xmlns:cc="http://web.resource.org/cc/" xmlns:dc="http://purl.org/dc/elements/1.1/" xmlns:svg="http://www.w3.org/2000/svg" xmlns:inkscape="http://www.inkscape.org/namespaces/inkscape" xmlns:sodipodi="http://sodipodi.sourceforge.net/DTD/sodipodi-0.dtd" xmlns:ns1="http://sozi.baierouge.fr" xmlns:xlink="http://www.w3.org/1999/xlink" viewBox="0 0 191 194">
  <path d="m4 194l2-2 3-3 2-2 3-2 2-3 3-2 2-3 2-3 3-2 2-3 2-3 3-2 2-3 2-2 3-2 2-3 3-3 3-4 3-3 3-3 3-3 3-4 3-3 2-3 3-3 3-3 3-3 3-3 3-4 3-3 3-3 3-3 1-1 2-2 1-1 1-1 2-1 1-1 1-2 1-1 1-1 1-1 1-1 2-2 1-1 1-1 1-1 1-1v-1h1v-1h1v-1h1l7 4 12 7-2 2v1h1l15-11h1 1v-1-1l14-9 1-1 1-1 1-1 2-1 1-1 1-2 1-1 2-1 1-1 1-1 1-1 2-1h1l2-1 1-1 1-1 3-2 6-3 2-2-7-9-2-1-2-2-2-1-1-2-2-2-1-2-2-1-1-2-1-2h-1-1l-27-26-3 3-3 3-2 3-3 3-2 4-2 3-3 3-2 4-3 3-2 3-3 4-2 3-3 3-3 4-3 3-3 3-1-1-2 2v1 1 1h-1v1 1h-1v1 1l1 1h1v1l1 1v1l1 1v1l7 10-2 3-2 3-3 3-2 2-2 3-3 3-2 2-3 3-2 2-3 3-2 3-3 2-3 3-2 3-3 2-2 3-3 2-2 2-2 2-2 2-2 2-2 3-2 2-2 2-2 2-2 2-2 2-2 2-2 3-2 2-1 2-2 2-2 2-2 2-2 2-2 3-2 2-2 2-2 2-2 2-2 2-2 2-2 2-2 2-2 2-2 2-2 2-2 3v1l-1 1v1l-1 1v1 1h1 1v1h1 1z"/>
  <path style="fill:#fff" d="m5 189l11-11-1 1-2 1-2 2-1 1-2 2-1 2-1 1-1 1z"/>
  <path style="fill:#fff" d="m132 89l2-2v-1l-1-1-3 2v1l1 1h1z"/>
  <path style="fill:#fff" d="m126 85l3-3v-1h-1v-1h-1-1l-3 3 1 1 1 1h1z"/>
  <circle style="fill:#fff" cx="138" r="2" cy="82"/>
  <circle style="fill:#fff" cx="120" r="3" cy="78"/>
  <circle style="fill:#fff" cx="133" r="3" cy="77"/>
  <circle style="fill:#fff" cx="146" r="3" cy="76"/>
  <circle style="fill:#fff" cx="115" r="3" cy="73"/>
  <circle style="fill:#fff" cx="127" r="2" cy="72"/>
  <path style="fill:#fff" d="m107 74h1v-1l-1-1-1-1v1 1 1h1z"/>
  <circle style="fill:#fff" cx="140" r="3" cy="71"/>
  <path style="fill:#fff" d="m153 73h1v-1l1-1 1-1-3-3h-1l-2 3 2 4v-1h1z"/>
  <circle style="fill:#fff" cx="110" r="2" cy="68"/>
  <circle style="fill:#fff" cx="122" r="3" cy="66"/>
  <path style="fill:#fff" d="m134 68l3-3v-1-1h-1v-1h-1l-4 4 2 2h1z"/>
  <circle style="fill:#fff" cx="105" r="2" cy="64"/>
  <path style="fill:#fff" d="m147 67h1v-1h1v-1l1-1-2-2-4 2 3 3z"/>
  <circle style="fill:#fff" cx="158" r="2" cy="65"/>
  <circle style="fill:#fff" cx="117" r="3" cy="61"/>
  <circle style="fill:#fff" cx="129" r="3" cy="60"/>
  <circle style="fill:#fff" cx="165" r="4" cy="60"/>
  <path style="fill:#fff" d="m100 63l3-4-1-1v-1h-1l-1-1v1h-1l-1 1v1 1l2 3z"/>
  <circle style="fill:#fff" cx="142" r="3" cy="58"/>
  <path style="fill:#fff" d="m154 61l1-1v-1l-1-1-1-1h-1l-1 1v1l2 3 1-1z"/>
  <circle style="fill:#fff" cx="111" r="3" cy="56"/>
  <path style="fill:#fff" d="m123 58l4-5h-1v-1l-1-1-5 4 2 3h1z"/>
  <path style="fill:#fff" d="m158 57l5-4-2-2-6 3 1 1v1h1v1h1z"/>
  <path style="fill:#fff" d="m173 57l4-2-4-4-4 2 4 4z"/>
  <path style="fill:#fff" d="m105 56l4-5-2-3-4 5v1l1 1 1 1z"/>
  <circle style="fill:#fff" cx="136" r="3" cy="53"/>
  <path style="fill:#fff" d="m148 56h1v-1l1-1-3-3h-1l-1 1v1l3 3z"/>
  <circle style="fill:#fff" cx="118" r="3" cy="49"/>
  <ellipse style="fill:#fff" cx="181" rx="5" cy="48" ry="3"/>
  <circle style="fill:#fff" cx="154" r="4" cy="48"/>
  <path style="fill:#fff" d="m167 51l3-4-1-3-1 1h-1-1l-1 1v1h-1v1l2 3h1z"/>
  <circle style="fill:#fff" cx="130" r="2" cy="47"/>
  <path style="fill:#fff" d="m142 50h1l1-1v-1l-2-3h-1v1l-2 2 1 1 1 1h1z"/>
  <circle style="fill:#fff" cx="113" r="3" cy="44"/>
  <circle style="fill:#fff" cx="124" r="3" cy="42"/>
  <circle style="fill:#fff" cx="136" r="3" cy="42"/>
  <path style="fill:#fff" d="m148 45l4-4v-1h-1v-1h-1l-1-1-1 1-1 1-1 1-1 1 3 3z"/>
  <circle style="fill:#fff" cx="161" r="3" cy="41"/>
  <circle style="fill:#fff" cx="174" r="3" cy="41"/>
  <circle style="fill:#fff" cx="118" r="2" cy="36"/>
  <path style="fill:#fff" d="m131 39l2-3-2-3v-1h-1-1l-1 1v1l-1 1v1l3 3h1z"/>
  <circle style="fill:#fff" cx="142" r="3" cy="35"/>
  <path style="fill:#fff" d="m155 38h1v-1l1-1 1-1 1-1-3-3-1 1-1 1-1 1-1 1 3 3z"/>
  <circle style="fill:#fff" cx="168" r="4" cy="35"/>
  <circle style="fill:#fff" cx="124" r="3" cy="29"/>
  <circle style="fill:#fff" cx="136" r="4" cy="29"/>
  <circle style="fill:#fff" cx="149" r="3" cy="29"/>
  <circle style="fill:#fff" cx="162" r="3" cy="28"/>
  <circle style="fill:#fff" cx="142" r="4" cy="22"/>
  <circle style="fill:#fff" cx="129" r="2" cy="22"/>
  <circle style="fill:#fff" cx="156" r="3" cy="22"/>
  <circle style="fill:#fff" cx="136" r="4" cy="15"/>
  <path style="fill:#fff" d="m151 19l1-1v-1l-4-7-1 1-1 1h-1v1 1l5 5h1z"/>
  <circle style="fill:#fff" cx="141" r="3" cy="7"/>
  <metadata>
    <rdf:RDF>
      <cc:Work>
        <dc:format>image/svg+xml</dc:format>
        <dc:type rdf:resource="http://purl.org/dc/dcmitype/StillImage"/>
        <cc:license rdf:resource="http://creativecommons.org/licenses/publicdomain/"/>
        <dc:publisher>
          <cc:Agent rdf:about="http://openclipart.org/">
            <dc:title>Openclipart</dc:title>
          </cc:Agent>
        </dc:publisher>
        <dc:title>Fly swatter</dc:title>
        <dc:date>2006-12-29T11:42:27</dc:date>
        <dc:description>Converted to SVG from clipart on “PC för alla” CD 3-2003.</dc:description>
        <dc:source>https://openclipart.org/detail/2469/fly-swatter-by-liftarn</dc:source>
        <dc:creator>
          <cc:Agent>
            <dc:title>liftarn</dc:title>
          </cc:Agent>
        </dc:creator>
        <dc:subject>
          <rdf:Bag>
            <rdf:li>black</rdf:li>
            <rdf:li>externalsource</rdf:li>
            <rdf:li>fly</rdf:li>
            <rdf:li>kill</rdf:li>
            <rdf:li>pc for alla</rdf:li>
            <rdf:li>swatter</rdf:li>
            <rdf:li>tool</rdf:li>
          </rdf:Bag>
        </dc:subject>
      </cc:Work>
      <cc:License rdf:about="http://creativecommons.org/licenses/publicdomain/">
        <cc:permits rdf:resource="http://creativecommons.org/ns#Reproduction"/>
        <cc:permits rdf:resource="http://creativecommons.org/ns#Distribution"/>
        <cc:permits rdf:resource="http://creativecommons.org/ns#DerivativeWorks"/>
      </cc:License>
    </rdf:RDF>
  </metadata>
</svg>